<svg width="20" height="20" viewBox="0 0 20 20" fill="none" xmlns="http://www.w3.org/2000/svg">
<path d="M8.09082 6.22623C8.1802 6.22623 8.26895 6.20498 8.35145 6.16311L12.4108 4.08061C12.6108 3.97811 12.7339 3.76811 12.7264 3.54123C12.7189 3.31436 12.5827 3.11311 12.3764 3.02373L8.38457 1.29623C8.20832 1.21998 8.0052 1.23686 7.84395 1.34311C7.68207 1.44811 7.58395 1.62811 7.5802 1.82248L7.55832 3.06373C4.45145 4.11373 2.39082 7.04498 2.50395 10.3456C2.59395 12.9669 4.0927 15.3762 6.41645 16.6325C6.50332 16.6794 6.59645 16.7012 6.68832 16.7012C6.89457 16.7012 7.09395 16.5894 7.1977 16.3931C7.3477 16.1087 7.24207 15.7556 6.96082 15.6037C4.99895 14.5425 3.73332 12.5125 3.65707 10.305C3.56645 7.66498 5.13207 5.30498 7.53645 4.31498L7.51332 5.63186C7.5102 5.83623 7.6127 6.02811 7.78457 6.13686C7.8777 6.19686 7.98395 6.22623 8.09082 6.22623ZM10.7877 3.60561L8.6852 4.68436L8.7202 2.71061L10.7877 3.60561ZM17.4958 9.83998C17.4121 7.40623 16.1308 5.16373 14.0696 3.84061C13.7983 3.66748 13.4433 3.74811 13.2727 4.02061C13.1027 4.29248 13.1821 4.65311 13.4508 4.82561C15.1914 5.94248 16.2733 7.83186 16.3433 9.87998C16.4277 12.3287 15.0771 14.5587 12.9233 15.6587L12.8896 14.3425C12.8833 14.1381 12.7727 13.9519 12.5971 13.8506C12.4214 13.75 12.2058 13.7487 12.0302 13.8494L8.06332 16.1006C7.8677 16.2119 7.75395 16.4269 7.7702 16.6531C7.78707 16.8787 7.93145 17.0744 8.14145 17.155L12.2052 18.7125C12.2721 18.7375 12.3408 18.75 12.4096 18.75C12.5271 18.75 12.6446 18.7131 12.7433 18.6425C12.9002 18.53 12.9908 18.3456 12.9864 18.1519L12.9552 16.9281C15.7908 15.7262 17.6021 12.93 17.4958 9.83998ZM9.7052 16.5062L11.7602 15.34L11.8108 17.3131L9.7052 16.5062Z" fill="#FF4100"/>
</svg>
