<svg width="20" height="20" viewBox="0 0 20 20" fill="none" xmlns="http://www.w3.org/2000/svg">
<path d="M10 1.25C5.16781 1.25 1.25 5.16781 1.25 10C1.25 14.8322 5.16781 18.75 10 18.75C14.8322 18.75 18.75 14.8322 18.75 10C18.75 5.16781 14.8322 1.25 10 1.25ZM10 1.875C11.6009 1.875 13.0909 2.34687 14.3506 3.14937L12.0537 5.44625C11.4089 5.15265 10.7086 5.00049 10 5C9.2675 5 8.57344 5.16219 7.94625 5.44625L5.64937 3.14937C6.90906 2.34687 8.39906 1.875 10 1.875ZM5.44625 12.0537L3.14937 14.3506C2.34687 13.0913 1.875 11.6009 1.875 10C1.875 8.39906 2.34687 6.90875 3.14937 5.64937L5.44625 7.94625C5.15262 8.59113 5.00046 9.29141 5 10C5 10.7325 5.16219 11.4262 5.44625 12.0537ZM10 18.125C8.39906 18.125 6.90906 17.6531 5.64937 16.8506L7.94625 14.5537C8.59113 14.8474 9.29141 14.9995 10 15C10.7325 15 11.4262 14.8378 12.0537 14.5537L14.3506 16.8506C13.0909 17.6531 11.6009 18.125 10 18.125ZM14.0759 11.5803C13.8554 12.1462 13.5198 12.6602 13.0903 13.0897C12.6608 13.5192 12.1469 13.8548 11.5809 14.0753C11.0772 14.2726 10.541 14.3743 10 14.375C9.44219 14.375 8.91 14.2662 8.41906 14.0753C7.5979 13.7552 6.89217 13.1953 6.3938 12.4684C5.89544 11.7415 5.62753 10.8813 5.625 10C5.62871 8.84082 6.09084 7.73017 6.9105 6.9105C7.73017 6.09084 8.84082 5.62871 10 5.625C11.1592 5.62871 12.2698 6.09084 13.0895 6.9105C13.9092 7.73017 14.3713 8.84082 14.375 10C14.375 10.5578 14.2662 11.0894 14.0759 11.5803ZM14.5537 12.0537C14.8472 11.4088 14.9994 10.7086 15 10C14.9994 9.29143 14.8472 8.59118 14.5537 7.94625L16.8506 5.64937C17.6531 6.90875 18.125 8.39906 18.125 10C18.125 11.6009 17.6531 13.0913 16.8506 14.3506L14.5537 12.0537Z" fill="#FF4100"/>
</svg>
