<svg width="23" height="23" viewBox="0 0 23 23" fill="none" xmlns="http://www.w3.org/2000/svg">
<path d="M11.25 0.5C11.9785 0.5 12.6861 0.745124 13.2588 1.19531L20.1807 6.63281H20.1816C20.7484 7.07733 21.2065 7.64527 21.5215 8.29297C21.8365 8.94067 22.0002 9.65183 22 10.3721V17.249C22 18.5088 21.4992 19.7176 20.6084 20.6084C19.7176 21.499 18.5096 21.999 17.25 21.999H15C14.9337 21.999 14.8701 21.9727 14.8232 21.9258C14.7765 21.8789 14.75 21.8153 14.75 21.749V16.499C14.7499 15.5709 14.3809 14.6807 13.7246 14.0244C13.1093 13.4092 12.2887 13.0469 11.4238 13.0039L11.25 12.999C10.3218 12.999 9.43175 13.3681 8.77539 14.0244C8.11909 14.6807 7.75008 15.5709 7.75 16.499V21.749C7.75 21.8153 7.72355 21.8789 7.67676 21.9258C7.62987 21.9727 7.5663 21.999 7.5 21.999H5.25C3.99038 21.999 2.78237 21.499 1.8916 20.6084C1.0008 19.7176 0.5 18.5088 0.5 17.249V10.3721C0.49979 9.65183 0.663522 8.94067 0.978516 8.29297C1.29355 7.64527 1.75165 7.07733 2.31836 6.63281H2.31934L9.24121 1.19531C9.81391 0.745124 10.5215 0.5 11.25 0.5Z" stroke="#D3D3D3"/>
</svg>
