<svg width="20" height="20" viewBox="0 0 20 20" fill="none" xmlns="http://www.w3.org/2000/svg">
<path d="M14.8296 3.81201C14.8772 3.82615 14.9219 3.84906 14.9604 3.88037C15.66 4.44934 16.2573 5.1341 16.7271 5.90381L16.8599 6.12939C17.5025 7.26858 17.8515 8.55135 17.8745 9.86182C17.899 11.2598 17.5515 12.6399 16.8667 13.8589C16.1819 15.0778 15.1845 16.092 13.978 16.7983C12.7715 17.5046 11.3985 17.877 10.0005 17.8774C8.74329 17.8809 7.50351 17.5807 6.38721 17.0024C6.2983 16.9564 6.23114 16.8771 6.20068 16.7817C6.17023 16.6861 6.17903 16.5818 6.2251 16.4927C6.27118 16.4037 6.35127 16.3366 6.44678 16.3062C6.54225 16.2759 6.64587 16.2846 6.73486 16.3306L6.99561 16.4585C8.31176 17.0713 9.78628 17.2684 11.2212 17.019C12.7517 16.753 14.1534 15.9935 15.2124 14.8569C16.2714 13.7204 16.93 12.2686 17.0874 10.7231C17.2447 9.17774 16.8926 7.62303 16.0845 6.29639C15.6588 5.60001 15.1172 4.98118 14.4839 4.46631C14.4067 4.40344 14.3578 4.31235 14.3472 4.21338C14.3366 4.11456 14.3653 4.01569 14.4272 3.93799V3.93701C14.4583 3.89831 14.497 3.86613 14.5405 3.84229C14.5842 3.81842 14.6326 3.80361 14.6821 3.79834C14.7316 3.79307 14.7819 3.79787 14.8296 3.81201ZM9.99951 2.12354C11.2045 2.11997 12.3944 2.39436 13.4751 2.92725L13.5386 2.96631C13.597 3.01159 13.6407 3.07394 13.6646 3.14502C13.6885 3.2162 13.6907 3.29233 13.6714 3.36377L13.645 3.43311C13.6233 3.47758 13.5932 3.51749 13.5562 3.55029C13.5189 3.58324 13.4753 3.60837 13.4282 3.62451C13.3812 3.64062 13.3313 3.64717 13.2817 3.64404C13.2322 3.64088 13.1837 3.62783 13.1392 3.60596C11.5435 2.82245 9.71194 2.66389 8.00537 3.16162C6.29881 3.65941 4.83978 4.77786 3.91553 6.29639C3.01916 7.7696 2.68786 9.51824 2.98291 11.2173C3.2781 12.9164 4.18024 14.451 5.521 15.5356C5.55953 15.5671 5.5922 15.6071 5.61572 15.6509C5.63907 15.6945 5.65377 15.7423 5.65869 15.7915C5.66361 15.841 5.65849 15.8914 5.64404 15.939C5.62977 15.9859 5.60568 16.0289 5.57471 16.0669L5.57568 16.0679C5.54014 16.1128 5.49449 16.1485 5.44287 16.1733C5.39116 16.1982 5.33424 16.2117 5.27686 16.2114C5.18993 16.2107 5.10551 16.18 5.03857 16.1245V16.1235C3.77258 15.099 2.85505 13.7075 2.4126 12.1401C1.96998 10.5721 2.02483 8.90542 2.56885 7.36963C3.11288 5.83388 4.11976 4.50469 5.45068 3.56494C6.78144 2.62537 8.37049 2.12241 9.99951 2.12354Z" fill="#FF4100" stroke="#FF4100" stroke-width="0.2"/>
<path d="M9.73926 2.41235C9.83528 2.41997 9.92558 2.464 9.99023 2.5354C10.0547 2.60672 10.0898 2.70003 10.0879 2.79614C10.086 2.89237 10.0468 2.98424 9.97949 3.05298L9.97754 3.05493C9.03899 3.95832 8.30067 5.04972 7.81152 6.25708V6.25903C7.30508 7.44122 7.04348 8.71415 7.04395 10.0002C7.05957 11.125 7.26158 12.2384 7.64062 13.2952L7.81445 13.7454L7.81641 13.7493C8.25976 14.9761 9.00134 16.0731 9.97461 16.9417L9.97559 16.9426C10.0319 16.9938 10.0713 17.061 10.0889 17.135C10.1064 17.209 10.1015 17.2867 10.0742 17.3577C10.0468 17.4287 9.99829 17.4903 9.93555 17.5334C9.87292 17.5766 9.79868 17.5996 9.72266 17.5999H9.72168C9.65146 17.5997 9.5834 17.5796 9.52441 17.5432L9.46875 17.5022C8.41331 16.5557 7.60911 15.3621 7.12793 14.0286V14.0276C6.59692 12.7505 6.3123 11.3842 6.28906 10.0012V9.99927C6.29221 8.61071 6.57789 7.23727 7.12988 5.96313C7.65663 4.65743 8.45327 3.47756 9.4668 2.50024L9.47266 2.49341L9.47363 2.49438C9.5486 2.43423 9.64344 2.40486 9.73926 2.41235Z" fill="#FF4100" stroke="#FF4100" stroke-width="0.2"/>
<path d="M10.2583 2.38928C10.3097 2.38829 10.3611 2.3972 10.4087 2.41663C10.455 2.43555 10.4963 2.46436 10.5317 2.49963H10.5327C11.5514 3.4757 12.3524 4.65638 12.8833 5.9635L13.0767 6.44592C13.4971 7.58205 13.7126 8.78543 13.7114 9.99963V10.0016C13.6882 11.3848 13.4018 12.7506 12.8706 14.028L12.8716 14.0289C12.3872 15.3636 11.5786 16.5574 10.519 17.5026C10.4538 17.5616 10.3696 17.5964 10.2817 17.6002H10.2778C10.2017 17.6 10.1267 17.576 10.064 17.5328C10.0015 17.4897 9.95359 17.4289 9.92627 17.358C9.89895 17.2871 9.89319 17.2094 9.91064 17.1354C9.92817 17.0615 9.9678 16.9942 10.0239 16.943L10.0249 16.942C10.9983 16.0735 11.7407 14.9765 12.1841 13.7496L12.1851 13.7448C12.6761 12.5562 12.9378 11.2855 12.9556 9.99963L12.9438 9.51819C12.8873 8.39685 12.6321 7.29281 12.189 6.25842L12.188 6.25647C11.6988 5.04924 10.9604 3.9586 10.022 3.0553V3.05432C9.98523 3.02321 9.95468 2.9856 9.93213 2.94299C9.90807 2.8975 9.89323 2.8478 9.88916 2.79651C9.8851 2.7453 9.8912 2.69378 9.90771 2.64514C9.92432 2.5964 9.95128 2.55148 9.98584 2.51331C10.0204 2.47516 10.062 2.44382 10.1089 2.42249C10.1557 2.40117 10.2069 2.39031 10.2583 2.38928Z" fill="#FF4100" stroke="#FF4100" stroke-width="0.2"/>
<path d="M16.3892 13.511C16.4891 13.5111 16.585 13.5507 16.6558 13.6213C16.7266 13.6922 16.7671 13.7887 16.7671 13.8889C16.7671 13.989 16.7265 14.0847 16.6558 14.1555C16.585 14.2263 16.4892 14.2668 16.3892 14.2668H3.61084C3.51073 14.2668 3.41503 14.2263 3.34424 14.1555C3.27345 14.0847 3.23294 13.989 3.23291 13.8889C3.23291 13.7887 3.27339 13.6922 3.34424 13.6213C3.415 13.5507 3.51088 13.511 3.61084 13.511H16.3892ZM17.4995 9.62231C17.5997 9.62231 17.6962 9.66185 17.7671 9.73267C17.8379 9.80351 17.8774 9.90005 17.8774 10.0002C17.8774 10.1003 17.8378 10.1961 17.7671 10.2668C17.6962 10.3377 17.5997 10.3782 17.4995 10.3782H2.49951C2.39948 10.3781 2.30366 10.3376 2.23291 10.2668C2.16217 10.1961 2.12264 10.1003 2.12256 10.0002C2.12256 9.90005 2.16206 9.80351 2.23291 9.73267C2.30364 9.66199 2.39953 9.62243 2.49951 9.62231H17.4995ZM16.3892 5.73364C16.4892 5.73373 16.585 5.77326 16.6558 5.84399C16.7265 5.91474 16.767 6.01056 16.7671 6.1106C16.7671 6.21079 16.7266 6.30733 16.6558 6.37817C16.585 6.44888 16.4892 6.48844 16.3892 6.48853H3.61084C3.5108 6.48847 3.41502 6.44887 3.34424 6.37817C3.27339 6.30733 3.23291 6.21079 3.23291 6.1106C3.23302 6.01056 3.27349 5.91474 3.34424 5.84399C3.41502 5.77327 3.51078 5.7337 3.61084 5.73364H16.3892Z" fill="#FF4100" stroke="#FF4100" stroke-width="0.2"/>
<path d="M9.99951 2.40039C10.0997 2.40039 10.1962 2.4399 10.2671 2.51074C10.3378 2.58148 10.3773 2.67733 10.3774 2.77734V17.2227C10.3773 17.3227 10.3378 17.4185 10.2671 17.4893C10.1962 17.5601 10.0997 17.5996 9.99951 17.5996C9.89948 17.5995 9.80366 17.56 9.73291 17.4893C9.66217 17.4185 9.62267 17.3227 9.62256 17.2227V2.77734C9.62267 2.67731 9.66217 2.58149 9.73291 2.51074C9.80365 2.44 9.89948 2.40051 9.99951 2.40039Z" fill="#FF4100" stroke="#FF4100" stroke-width="0.2"/>
</svg>
