<svg width="20" height="20" viewBox="0 0 20 20" fill="none" xmlns="http://www.w3.org/2000/svg">
<path d="M10.7668 12.5001C10.7502 12.4489 10.7248 12.4009 10.6918 12.3584L10.5918 12.2334C10.5144 12.1553 10.4222 12.0933 10.3206 12.051C10.2191 12.0087 10.1102 11.9869 10.0002 11.9869C9.89016 11.9869 9.78124 12.0087 9.67969 12.051C9.57814 12.0933 9.48597 12.1553 9.4085 12.2334C9.36878 12.2695 9.33502 12.3117 9.3085 12.3584C9.27552 12.4009 9.25014 12.4489 9.2335 12.5001C9.20937 12.5502 9.19253 12.6035 9.1835 12.6584C9.17942 12.7111 9.17942 12.764 9.1835 12.8167C9.1806 12.9287 9.20341 13.0399 9.25017 13.1417C9.33497 13.3444 9.49636 13.5054 9.69924 13.5896C9.90212 13.6739 10.1301 13.6747 10.3335 13.5917C10.4348 13.5464 10.5277 13.4845 10.6085 13.4084C10.6835 13.3316 10.7429 13.241 10.7835 13.1417C10.8273 13.039 10.85 12.9284 10.8502 12.8167C10.8543 12.764 10.8543 12.7111 10.8502 12.6584C10.8307 12.6016 10.8026 12.5482 10.7668 12.5001ZM10.0002 6.13339C9.77915 6.13339 9.56719 6.22118 9.41091 6.37746C9.25463 6.53374 9.16683 6.74571 9.16683 6.96672V9.46672C9.16683 9.68773 9.25463 9.8997 9.41091 10.056C9.56719 10.2123 9.77915 10.3001 10.0002 10.3001C10.2212 10.3001 10.4331 10.2123 10.5894 10.056C10.7457 9.8997 10.8335 9.68773 10.8335 9.46672V6.96672C10.8335 6.74571 10.7457 6.53374 10.5894 6.37746C10.4331 6.22118 10.2212 6.13339 10.0002 6.13339ZM16.3585 3.04172C16.2617 2.9634 16.1486 2.90778 16.0274 2.87894C15.9063 2.8501 15.7802 2.84877 15.6585 2.87505C14.768 3.06167 13.8488 3.06405 12.9574 2.88204C12.0659 2.70003 11.2212 2.33748 10.4752 1.81672C10.3357 1.71995 10.1699 1.66809 10.0002 1.66809C9.83039 1.66809 9.66466 1.71995 9.52517 1.81672C8.77913 2.33748 7.9344 2.70003 7.04297 2.88204C6.15155 3.06405 5.2323 3.06167 4.34183 2.87505C4.22012 2.84877 4.09406 2.8501 3.97292 2.87894C3.85178 2.90778 3.73865 2.9634 3.64183 3.04172C3.54515 3.12015 3.46727 3.21925 3.41391 3.33173C3.36055 3.44422 3.33308 3.56722 3.3335 3.69172V9.90005C3.33276 11.0948 3.61748 12.2725 4.16395 13.335C4.71041 14.3975 5.50282 15.3141 6.47517 16.0084L9.51683 18.1751C9.65797 18.2755 9.82691 18.3295 10.0002 18.3295C10.1734 18.3295 10.3424 18.2755 10.4835 18.1751L13.5252 16.0084C14.4975 15.3141 15.2899 14.3975 15.8364 13.335C16.3829 12.2725 16.6676 11.0948 16.6668 9.90005V3.69172C16.6673 3.56722 16.6398 3.44422 16.5864 3.33173C16.5331 3.21925 16.4552 3.12015 16.3585 3.04172ZM15.0002 9.90005C15.0008 10.829 14.7796 11.7447 14.3549 12.5709C13.9302 13.3971 13.3143 14.1099 12.5585 14.6501L10.0002 16.4751L7.44183 14.6501C6.68603 14.1099 6.07015 13.3971 5.64546 12.5709C5.22076 11.7447 4.99953 10.829 5.00017 9.90005V4.65005C6.74719 4.79958 8.49687 4.39424 10.0002 3.49172C11.5035 4.39424 13.2531 4.79958 15.0002 4.65005V9.90005Z" fill="#FF4100"/>
</svg>
