<svg width="16" height="20" viewBox="0 0 16 20" fill="none" xmlns="http://www.w3.org/2000/svg">
<path d="M5.88867 14.0479C7.30153 13.934 8.72093 13.934 10.1338 14.0479L10.1445 14.0488C10.9063 14.0932 11.6653 14.1884 12.415 14.334V14.333C13.9557 14.6455 14.827 15.1172 15.2217 15.7305L15.2939 15.8555C15.5684 16.4042 15.5684 17.0567 15.2939 17.6055C14.9368 18.2857 14.0877 18.831 12.4062 19.125L12.3936 19.127C11.6457 19.2778 10.8888 19.3763 10.1279 19.4209L10.1152 19.4219L10.1016 19.4229C9.40684 19.4994 8.70754 19.5 7.96777 19.5H6.66797C6.39302 19.4662 6.12415 19.4472 5.86133 19.4463C5.10285 19.4071 4.34791 19.3131 3.60254 19.1631L3.59863 19.1621L3.2998 19.1006C1.94953 18.8026 1.16282 18.3423 0.792969 17.7666L0.719727 17.6416C0.576924 17.3686 0.50126 17.0626 0.5 16.751V16.748L0.511719 16.5146C0.537777 16.2832 0.606344 16.0586 0.712891 15.8525V15.8516C1.05998 15.1784 1.94392 14.6397 3.59473 14.335L3.60059 14.334C4.352 14.1865 5.11217 14.0911 5.87598 14.0488L5.88867 14.0479ZM8.00293 0.5C10.6138 0.500169 12.7539 2.68082 12.7539 5.40039C12.7539 8.11994 10.6138 10.3006 8.00293 10.3008C5.39196 10.3008 3.25099 8.12005 3.25098 5.40039C3.25098 2.68072 5.39195 0.5 8.00293 0.5Z" stroke="white"/>
</svg>
