<svg width="20" height="20" viewBox="0 0 20 20" fill="none" xmlns="http://www.w3.org/2000/svg">
<path d="M10.0015 4.75C7.10647 4.75 4.75146 7.105 4.75146 10C4.75146 12.895 7.10647 15.25 10.0015 15.25C12.8965 15.25 15.2515 12.895 15.2515 10C15.2515 7.105 12.8962 4.75 10.0015 4.75ZM10.0015 14.75C7.38222 14.75 5.25146 12.6193 5.25146 10C5.25146 7.38075 7.38222 5.25 10.0015 5.25C12.6207 5.25 14.7515 7.38075 14.7515 10C14.7515 12.6193 12.6205 14.75 10.0015 14.75Z" fill="#FF4100"/>
<mask id="path-2-outside-1_0_817" maskUnits="userSpaceOnUse" x="0.25" y="0.25" width="19" height="19" fill="black">
<rect fill="white" x="0.25" y="0.25" width="19" height="19"/>
<path d="M18.5 8.76575H16.8905C16.7142 7.78291 16.3297 6.84912 15.763 6.027L16.9055 4.8845C16.9524 4.83762 16.9787 4.77404 16.9787 4.70775C16.9787 4.64146 16.9524 4.57788 16.9055 4.531L15.4913 3.11675C15.4444 3.06988 15.3808 3.04355 15.3145 3.04355C15.2482 3.04355 15.1846 3.06988 15.1377 3.11675L13.9995 4.255C13.18 3.68418 12.2479 3.2953 11.2657 3.1145V1.5C11.2657 1.4337 11.2394 1.37011 11.1925 1.32322C11.1456 1.27634 11.0821 1.25 11.0157 1.25H9.01575C8.94945 1.25 8.88586 1.27634 8.83897 1.32322C8.79209 1.37011 8.76575 1.4337 8.76575 1.5V3.1095C7.78287 3.2857 6.84906 3.67014 6.027 4.237L4.8845 3.0945C4.83762 3.04763 4.77404 3.0213 4.70775 3.0213C4.64146 3.0213 4.57788 3.04763 4.531 3.0945L3.11675 4.50875C3.06988 4.55563 3.04355 4.61921 3.04355 4.6855C3.04355 4.75179 3.06988 4.81537 3.11675 4.86225L4.255 6.0005C3.68414 6.82003 3.29527 7.75224 3.1145 8.7345H1.5C1.4337 8.7345 1.37011 8.76084 1.32322 8.80772C1.27634 8.85461 1.25 8.9182 1.25 8.9845V10.9845C1.25 11.0508 1.27634 11.1144 1.32322 11.1613C1.37011 11.2082 1.4337 11.2345 1.5 11.2345H3.1095C3.28587 12.2173 3.6703 13.151 4.237 13.973L3.0945 15.1155C3.04763 15.1624 3.0213 15.226 3.0213 15.2922C3.0213 15.3585 3.04763 15.4221 3.0945 15.469L4.50875 16.8832C4.55563 16.9301 4.61921 16.9564 4.6855 16.9564C4.75179 16.9564 4.81537 16.9301 4.86225 16.8832L6.0005 15.745C6.82003 16.3159 7.75224 16.7047 8.7345 16.8855V18.5C8.7345 18.5663 8.76084 18.6299 8.80772 18.6768C8.85461 18.7237 8.9182 18.75 8.9845 18.75H10.9845C11.0508 18.75 11.1144 18.7237 11.1613 18.6768C11.2082 18.6299 11.2345 18.5663 11.2345 18.5V16.8905C12.2173 16.7143 13.151 16.3298 13.973 15.763L15.1155 16.9055C15.1624 16.9524 15.226 16.9787 15.2922 16.9787C15.3585 16.9787 15.4221 16.9524 15.469 16.9055L16.8832 15.4913C16.9301 15.4444 16.9564 15.3808 16.9564 15.3145C16.9564 15.2482 16.9301 15.1846 16.8832 15.1377L15.745 13.9995C16.3158 13.18 16.7047 12.2479 16.8855 11.2657H18.5C18.5663 11.2657 18.6299 11.2394 18.6768 11.1925C18.7237 11.1456 18.75 11.0821 18.75 11.0157V9.01575C18.75 8.94945 18.7237 8.88586 18.6768 8.83897C18.6299 8.79209 18.5663 8.76575 18.5 8.76575ZM18.25 10.7657H16.6737C16.6139 10.7657 16.5561 10.7872 16.5107 10.8262C16.4654 10.8651 16.4355 10.9191 16.4265 10.9782C16.2668 12.0287 15.8517 13.024 15.2175 13.8765C15.1816 13.9247 15.1642 13.9841 15.1686 14.044C15.173 14.104 15.1988 14.1603 15.2413 14.2028L16.353 15.3145L15.2925 16.375L14.177 15.26C14.1348 15.2176 14.0787 15.1918 14.0191 15.1873C13.9595 15.1828 13.9002 15.1998 13.852 15.2353C12.9965 15.8651 11.9995 16.2755 10.9485 16.4303C10.8891 16.439 10.8348 16.4688 10.7955 16.5142C10.7563 16.5596 10.7347 16.6177 10.7347 16.6777V18.25H9.23475V16.6737C9.23476 16.6139 9.21329 16.556 9.17425 16.5106C9.13521 16.4653 9.08119 16.4354 9.022 16.4265C7.97151 16.2668 6.97629 15.8517 6.12375 15.2175C6.07565 15.1815 6.01614 15.164 5.95618 15.1684C5.89623 15.1727 5.83988 15.1986 5.7975 15.2413L4.68575 16.353L3.625 15.2925L4.74 14.177C4.78236 14.1348 4.80816 14.0787 4.8127 14.0191C4.81724 13.9595 4.80023 13.9002 4.76475 13.852C4.13505 12.9964 3.72473 11.9995 3.56975 10.9485C3.56104 10.8891 3.53124 10.8348 3.4858 10.7955C3.44035 10.7563 3.3823 10.7347 3.32225 10.7347H1.75V9.23475H3.32625C3.38611 9.23476 3.44398 9.21329 3.48935 9.17425C3.53472 9.13521 3.56458 9.08119 3.5735 9.022C3.73315 7.97151 4.14831 6.97629 4.7825 6.12375C4.8184 6.07559 4.83575 6.01611 4.83139 5.9562C4.82703 5.89629 4.80124 5.83996 4.75875 5.7975L3.647 4.68575L4.7075 3.625L5.823 4.74C5.9105 4.82825 6.04875 4.8375 6.148 4.76475C7.00348 4.13486 8.00047 3.72453 9.0515 3.56975C9.11096 3.5611 9.16531 3.53132 9.20461 3.48587C9.24391 3.44042 9.26553 3.38233 9.2655 3.32225V1.75H10.7655V3.32625C10.7655 3.38607 10.7869 3.44391 10.8259 3.48928C10.8649 3.53465 10.9189 3.56453 10.978 3.5735C12.0235 3.731 13.0255 4.14925 13.8763 4.7825C13.9244 4.8184 13.9839 4.83575 14.0438 4.83139C14.1037 4.82703 14.16 4.80124 14.2025 4.75875L15.3142 3.647L16.375 4.7075L15.26 5.823C15.2176 5.86523 15.1918 5.92126 15.1873 5.98091C15.1828 6.04055 15.1998 6.09984 15.2353 6.148C15.865 7.00359 16.2753 8.00053 16.4303 9.0515C16.4389 9.11096 16.4687 9.16531 16.5141 9.20461C16.5596 9.24391 16.6177 9.26553 16.6777 9.2655H18.25V10.7657Z"/>
</mask>
<path d="M18.5 8.76575H16.8905C16.7142 7.78291 16.3297 6.84912 15.763 6.027L16.9055 4.8845C16.9524 4.83762 16.9787 4.77404 16.9787 4.70775C16.9787 4.64146 16.9524 4.57788 16.9055 4.531L15.4913 3.11675C15.4444 3.06988 15.3808 3.04355 15.3145 3.04355C15.2482 3.04355 15.1846 3.06988 15.1377 3.11675L13.9995 4.255C13.18 3.68418 12.2479 3.2953 11.2657 3.1145V1.5C11.2657 1.4337 11.2394 1.37011 11.1925 1.32322C11.1456 1.27634 11.0821 1.25 11.0157 1.25H9.01575C8.94945 1.25 8.88586 1.27634 8.83897 1.32322C8.79209 1.37011 8.76575 1.4337 8.76575 1.5V3.1095C7.78287 3.2857 6.84906 3.67014 6.027 4.237L4.8845 3.0945C4.83762 3.04763 4.77404 3.0213 4.70775 3.0213C4.64146 3.0213 4.57788 3.04763 4.531 3.0945L3.11675 4.50875C3.06988 4.55563 3.04355 4.61921 3.04355 4.6855C3.04355 4.75179 3.06988 4.81537 3.11675 4.86225L4.255 6.0005C3.68414 6.82003 3.29527 7.75224 3.1145 8.7345H1.5C1.4337 8.7345 1.37011 8.76084 1.32322 8.80772C1.27634 8.85461 1.25 8.9182 1.25 8.9845V10.9845C1.25 11.0508 1.27634 11.1144 1.32322 11.1613C1.37011 11.2082 1.4337 11.2345 1.5 11.2345H3.1095C3.28587 12.2173 3.6703 13.151 4.237 13.973L3.0945 15.1155C3.04763 15.1624 3.0213 15.226 3.0213 15.2922C3.0213 15.3585 3.04763 15.4221 3.0945 15.469L4.50875 16.8832C4.55563 16.9301 4.61921 16.9564 4.6855 16.9564C4.75179 16.9564 4.81537 16.9301 4.86225 16.8832L6.0005 15.745C6.82003 16.3159 7.75224 16.7047 8.7345 16.8855V18.5C8.7345 18.5663 8.76084 18.6299 8.80772 18.6768C8.85461 18.7237 8.9182 18.75 8.9845 18.75H10.9845C11.0508 18.75 11.1144 18.7237 11.1613 18.6768C11.2082 18.6299 11.2345 18.5663 11.2345 18.5V16.8905C12.2173 16.7143 13.151 16.3298 13.973 15.763L15.1155 16.9055C15.1624 16.9524 15.226 16.9787 15.2922 16.9787C15.3585 16.9787 15.4221 16.9524 15.469 16.9055L16.8832 15.4913C16.9301 15.4444 16.9564 15.3808 16.9564 15.3145C16.9564 15.2482 16.9301 15.1846 16.8832 15.1377L15.745 13.9995C16.3158 13.18 16.7047 12.2479 16.8855 11.2657H18.5C18.5663 11.2657 18.6299 11.2394 18.6768 11.1925C18.7237 11.1456 18.75 11.0821 18.75 11.0157V9.01575C18.75 8.94945 18.7237 8.88586 18.6768 8.83897C18.6299 8.79209 18.5663 8.76575 18.5 8.76575ZM18.25 10.7657H16.6737C16.6139 10.7657 16.5561 10.7872 16.5107 10.8262C16.4654 10.8651 16.4355 10.9191 16.4265 10.9782C16.2668 12.0287 15.8517 13.024 15.2175 13.8765C15.1816 13.9247 15.1642 13.9841 15.1686 14.044C15.173 14.104 15.1988 14.1603 15.2413 14.2028L16.353 15.3145L15.2925 16.375L14.177 15.26C14.1348 15.2176 14.0787 15.1918 14.0191 15.1873C13.9595 15.1828 13.9002 15.1998 13.852 15.2353C12.9965 15.8651 11.9995 16.2755 10.9485 16.4303C10.8891 16.439 10.8348 16.4688 10.7955 16.5142C10.7563 16.5596 10.7347 16.6177 10.7347 16.6777V18.25H9.23475V16.6737C9.23476 16.6139 9.21329 16.556 9.17425 16.5106C9.13521 16.4653 9.08119 16.4354 9.022 16.4265C7.97151 16.2668 6.97629 15.8517 6.12375 15.2175C6.07565 15.1815 6.01614 15.164 5.95618 15.1684C5.89623 15.1727 5.83988 15.1986 5.7975 15.2413L4.68575 16.353L3.625 15.2925L4.74 14.177C4.78236 14.1348 4.80816 14.0787 4.8127 14.0191C4.81724 13.9595 4.80023 13.9002 4.76475 13.852C4.13505 12.9964 3.72473 11.9995 3.56975 10.9485C3.56104 10.8891 3.53124 10.8348 3.4858 10.7955C3.44035 10.7563 3.3823 10.7347 3.32225 10.7347H1.75V9.23475H3.32625C3.38611 9.23476 3.44398 9.21329 3.48935 9.17425C3.53472 9.13521 3.56458 9.08119 3.5735 9.022C3.73315 7.97151 4.14831 6.97629 4.7825 6.12375C4.8184 6.07559 4.83575 6.01611 4.83139 5.9562C4.82703 5.89629 4.80124 5.83996 4.75875 5.7975L3.647 4.68575L4.7075 3.625L5.823 4.74C5.9105 4.82825 6.04875 4.8375 6.148 4.76475C7.00348 4.13486 8.00047 3.72453 9.0515 3.56975C9.11096 3.5611 9.16531 3.53132 9.20461 3.48587C9.24391 3.44042 9.26553 3.38233 9.2655 3.32225V1.75H10.7655V3.32625C10.7655 3.38607 10.7869 3.44391 10.8259 3.48928C10.8649 3.53465 10.9189 3.56453 10.978 3.5735C12.0235 3.731 13.0255 4.14925 13.8763 4.7825C13.9244 4.8184 13.9839 4.83575 14.0438 4.83139C14.1037 4.82703 14.16 4.80124 14.2025 4.75875L15.3142 3.647L16.375 4.7075L15.26 5.823C15.2176 5.86523 15.1918 5.92126 15.1873 5.98091C15.1828 6.04055 15.1998 6.09984 15.2353 6.148C15.865 7.00359 16.2753 8.00053 16.4303 9.0515C16.4389 9.11096 16.4687 9.16531 16.5141 9.20461C16.5596 9.24391 16.6177 9.26553 16.6777 9.2655H18.25V10.7657Z" fill="#FF4100"/>
<path d="M18.5 8.76575H16.8905C16.7142 7.78291 16.3297 6.84912 15.763 6.027L16.9055 4.8845C16.9524 4.83762 16.9787 4.77404 16.9787 4.70775C16.9787 4.64146 16.9524 4.57788 16.9055 4.531L15.4913 3.11675C15.4444 3.06988 15.3808 3.04355 15.3145 3.04355C15.2482 3.04355 15.1846 3.06988 15.1377 3.11675L13.9995 4.255C13.18 3.68418 12.2479 3.2953 11.2657 3.1145V1.5C11.2657 1.4337 11.2394 1.37011 11.1925 1.32322C11.1456 1.27634 11.0821 1.25 11.0157 1.25H9.01575C8.94945 1.25 8.88586 1.27634 8.83897 1.32322C8.79209 1.37011 8.76575 1.4337 8.76575 1.5V3.1095C7.78287 3.2857 6.84906 3.67014 6.027 4.237L4.8845 3.0945C4.83762 3.04763 4.77404 3.0213 4.70775 3.0213C4.64146 3.0213 4.57788 3.04763 4.531 3.0945L3.11675 4.50875C3.06988 4.55563 3.04355 4.61921 3.04355 4.6855C3.04355 4.75179 3.06988 4.81537 3.11675 4.86225L4.255 6.0005C3.68414 6.82003 3.29527 7.75224 3.1145 8.7345H1.5C1.4337 8.7345 1.37011 8.76084 1.32322 8.80772C1.27634 8.85461 1.25 8.9182 1.25 8.9845V10.9845C1.25 11.0508 1.27634 11.1144 1.32322 11.1613C1.37011 11.2082 1.4337 11.2345 1.5 11.2345H3.1095C3.28587 12.2173 3.6703 13.151 4.237 13.973L3.0945 15.1155C3.04763 15.1624 3.0213 15.226 3.0213 15.2922C3.0213 15.3585 3.04763 15.4221 3.0945 15.469L4.50875 16.8832C4.55563 16.9301 4.61921 16.9564 4.6855 16.9564C4.75179 16.9564 4.81537 16.9301 4.86225 16.8832L6.0005 15.745C6.82003 16.3159 7.75224 16.7047 8.7345 16.8855V18.5C8.7345 18.5663 8.76084 18.6299 8.80772 18.6768C8.85461 18.7237 8.9182 18.75 8.9845 18.75H10.9845C11.0508 18.75 11.1144 18.7237 11.1613 18.6768C11.2082 18.6299 11.2345 18.5663 11.2345 18.5V16.8905C12.2173 16.7143 13.151 16.3298 13.973 15.763L15.1155 16.9055C15.1624 16.9524 15.226 16.9787 15.2922 16.9787C15.3585 16.9787 15.4221 16.9524 15.469 16.9055L16.8832 15.4913C16.9301 15.4444 16.9564 15.3808 16.9564 15.3145C16.9564 15.2482 16.9301 15.1846 16.8832 15.1377L15.745 13.9995C16.3158 13.18 16.7047 12.2479 16.8855 11.2657H18.5C18.5663 11.2657 18.6299 11.2394 18.6768 11.1925C18.7237 11.1456 18.75 11.0821 18.75 11.0157V9.01575C18.75 8.94945 18.7237 8.88586 18.6768 8.83897C18.6299 8.79209 18.5663 8.76575 18.5 8.76575ZM18.25 10.7657H16.6737C16.6139 10.7657 16.5561 10.7872 16.5107 10.8262C16.4654 10.8651 16.4355 10.9191 16.4265 10.9782C16.2668 12.0287 15.8517 13.024 15.2175 13.8765C15.1816 13.9247 15.1642 13.9841 15.1686 14.044C15.173 14.104 15.1988 14.1603 15.2413 14.2028L16.353 15.3145L15.2925 16.375L14.177 15.26C14.1348 15.2176 14.0787 15.1918 14.0191 15.1873C13.9595 15.1828 13.9002 15.1998 13.852 15.2353C12.9965 15.8651 11.9995 16.2755 10.9485 16.4303C10.8891 16.439 10.8348 16.4688 10.7955 16.5142C10.7563 16.5596 10.7347 16.6177 10.7347 16.6777V18.25H9.23475V16.6737C9.23476 16.6139 9.21329 16.556 9.17425 16.5106C9.13521 16.4653 9.08119 16.4354 9.022 16.4265C7.97151 16.2668 6.97629 15.8517 6.12375 15.2175C6.07565 15.1815 6.01614 15.164 5.95618 15.1684C5.89623 15.1727 5.83988 15.1986 5.7975 15.2413L4.68575 16.353L3.625 15.2925L4.74 14.177C4.78236 14.1348 4.80816 14.0787 4.8127 14.0191C4.81724 13.9595 4.80023 13.9002 4.76475 13.852C4.13505 12.9964 3.72473 11.9995 3.56975 10.9485C3.56104 10.8891 3.53124 10.8348 3.4858 10.7955C3.44035 10.7563 3.3823 10.7347 3.32225 10.7347H1.75V9.23475H3.32625C3.38611 9.23476 3.44398 9.21329 3.48935 9.17425C3.53472 9.13521 3.56458 9.08119 3.5735 9.022C3.73315 7.97151 4.14831 6.97629 4.7825 6.12375C4.8184 6.07559 4.83575 6.01611 4.83139 5.9562C4.82703 5.89629 4.80124 5.83996 4.75875 5.7975L3.647 4.68575L4.7075 3.625L5.823 4.74C5.9105 4.82825 6.04875 4.8375 6.148 4.76475C7.00348 4.13486 8.00047 3.72453 9.0515 3.56975C9.11096 3.5611 9.16531 3.53132 9.20461 3.48587C9.24391 3.44042 9.26553 3.38233 9.2655 3.32225V1.75H10.7655V3.32625C10.7655 3.38607 10.7869 3.44391 10.8259 3.48928C10.8649 3.53465 10.9189 3.56453 10.978 3.5735C12.0235 3.731 13.0255 4.14925 13.8763 4.7825C13.9244 4.8184 13.9839 4.83575 14.0438 4.83139C14.1037 4.82703 14.16 4.80124 14.2025 4.75875L15.3142 3.647L16.375 4.7075L15.26 5.823C15.2176 5.86523 15.1918 5.92126 15.1873 5.98091C15.1828 6.04055 15.1998 6.09984 15.2353 6.148C15.865 7.00359 16.2753 8.00053 16.4303 9.0515C16.4389 9.11096 16.4687 9.16531 16.5141 9.20461C16.5596 9.24391 16.6177 9.26553 16.6777 9.2655H18.25V10.7657Z" stroke="#FF4100" stroke-width="0.4" mask="url(#path-2-outside-1_0_817)"/>
<path d="M10.0015 6.90039C11.0217 6.90039 11.8511 7.72977 11.8511 8.75V9.40527C12.2731 9.45471 12.6011 9.81494 12.6011 10.25V12.25C12.6011 12.7187 12.2202 13.0996 11.7515 13.0996H8.25146C7.78274 13.0996 7.40186 12.7187 7.40186 12.25V10.25C7.40186 9.81494 7.72987 9.45471 8.15186 9.40527V8.75C8.15186 7.72977 8.98124 6.90039 10.0015 6.90039ZM8.25146 10.0996C8.21168 10.0996 8.17315 10.1154 8.14502 10.1436C8.11689 10.1717 8.10107 10.2102 8.10107 10.25V12.25C8.10107 12.2898 8.11689 12.3283 8.14502 12.3564C8.17315 12.3846 8.21168 12.4004 8.25146 12.4004H11.7515C11.7912 12.4004 11.8298 12.3846 11.8579 12.3564C11.886 12.3283 11.9019 12.2898 11.9019 12.25V10.25C11.9019 10.2102 11.886 10.1717 11.8579 10.1436C11.8298 10.1154 11.7912 10.0996 11.7515 10.0996H8.25146ZM10.0015 7.59961C9.36744 7.59961 8.85107 8.11598 8.85107 8.75V9.40039H11.1519V8.75C11.1519 8.11598 10.6355 7.59961 10.0015 7.59961Z" fill="#FF4100" stroke="#FF4100" stroke-width="0.2"/>
</svg>
