<svg width="21" height="21" viewBox="0 0 21 21" fill="none" xmlns="http://www.w3.org/2000/svg">
<path d="M0.753906 15.1348C0.797866 15.1831 0.843329 15.2302 0.889648 15.2764L5.13379 19.5205V19.5215C5.17903 19.5668 5.22613 19.6102 5.27344 19.6533C5.00223 19.8153 4.69122 19.9053 4.37012 19.9053C3.96457 19.9052 3.57324 19.7657 3.26074 19.5127L3.13184 19.3975L1.01172 17.2773C0.684 16.9492 0.5 16.5038 0.5 16.04C0.500089 15.718 0.589861 15.4057 0.753906 15.1348ZM12.2734 2.14453C12.7374 2.14458 13.1826 2.32919 13.5107 2.65723L17.7549 6.90039C18.0829 7.22854 18.2666 7.67371 18.2666 8.1377C18.2666 8.54379 18.1262 8.93567 17.8711 9.24707L17.7549 9.375L17.2773 9.85156C17.1148 10.0141 16.9213 10.1435 16.709 10.2314C16.4967 10.3194 16.2688 10.3643 16.0391 10.3643C15.8095 10.3642 15.5822 10.3193 15.3701 10.2314C15.1578 10.1435 14.9643 10.0141 14.8018 9.85156L13.21 8.26172L12.8564 7.9082L8.26074 12.5039L7.9082 12.8574L8.26074 13.2109L9.85156 14.8027C10.1796 15.1309 10.3643 15.576 10.3643 16.04C10.3642 16.5037 10.1802 16.9483 9.85254 17.2764L9.37402 17.7539C9.04586 18.0819 8.6007 18.2666 8.13672 18.2666C7.67279 18.2665 7.22752 18.0819 6.89941 17.7539L2.65625 13.5107C2.32821 13.1826 2.1436 12.7374 2.14355 12.2734C2.14355 11.8674 2.28492 11.4755 2.54004 11.1641L2.65625 11.0361L3.13379 10.5596V10.5586C3.29628 10.3961 3.48984 10.2676 3.70215 10.1797C3.91443 10.0918 4.14231 10.0459 4.37207 10.0459C4.60165 10.046 4.8289 10.0919 5.04102 10.1797C5.2533 10.2676 5.44689 10.3961 5.60938 10.5586V10.5596L7.20117 12.1494L7.55469 12.5029L7.9082 12.1494L12.1494 7.90723L12.5029 7.55371L12.1504 7.2002L10.5596 5.6084C10.2315 5.28022 10.0469 4.83513 10.0469 4.37109C10.0469 3.90712 10.2315 3.46192 10.5596 3.13379L10.5586 3.13281L11.0361 2.65723C11.3643 2.32916 11.8094 2.14453 12.2734 2.14453ZM16.04 0.5C16.4457 0.5 16.8372 0.640912 17.1484 0.895508L17.2773 1.01172L19.3994 3.13379C19.727 3.46182 19.911 3.90654 19.9111 4.37012C19.9111 4.69237 19.8195 5.00423 19.6553 5.27539C19.6116 5.22734 19.5665 5.1797 19.5205 5.13379L15.2764 0.889648H15.2773C15.231 0.843158 15.1833 0.79802 15.1348 0.753906C15.4057 0.589861 15.718 0.500089 16.04 0.5Z" stroke="white"/>
</svg>
